<svg class="animated" id="freepik_stories-bipolar-disorder" xmlns="http://www.w3.org/2000/svg" viewBox="0 0 500 500" version="1.1" xmlns:xlink="http://www.w3.org/1999/xlink" xmlns:svgjs="http://svgjs.com/svgjs"><style>svg#freepik_stories-bipolar-disorder:not(.animated) .animable {opacity: 0;}svg#freepik_stories-bipolar-disorder.animated #freepik--Rain--inject-79 {animation: 1.5s Infinite  linear floating;animation-delay: 0s;}            @keyframes floating {                0% {                    opacity: 1;                    transform: translateY(0px);                }                50% {                    transform: translateY(-10px);                }                100% {                    opacity: 1;                    transform: translateY(0px);                }            }        .animator-hidden { display: none; }</style><g id="freepik--background-simple--inject-79" class="animable animator-hidden" style="transform-origin: 248.515px 286.653px;"><path d="M390.18,186.2c-9.49-3.91-19.14-7.55-27.8-12.4-8.07-4.53-17.93-9.07-12.29-18.14,4.39-7.06,14.06-8.72,10.77-19.13-5.14-16.27-88.24-39.87-160.2-28.48C132.29,118.87,68.08,174.14,47.31,236.6c-5.75,17.29-6,38.63,6.92,53.73,8.43,9.81,31,19.72,22.92,35.43-2.63,5.1-7.23,9-11.5,13-8.23,7.71-12.87,17.1-13.19,28.13-.8,27.38,19,50.71,42,65.08C145,463.58,197.23,475,268.33,464.4c96.41-14.34,182.3-80.58,185.11-178.37C454.69,242.67,433,203.82,390.18,186.2Z" style="fill: #8A2BE2; transform-origin: 248.515px 286.653px;" id="el8jsf2gmk5cc" class="animable"></path><g id="el4d99ewho0us"><path d="M390.18,186.2c-9.49-3.91-19.14-7.55-27.8-12.4-8.07-4.53-17.93-9.07-12.29-18.14,4.39-7.06,14.06-8.72,10.77-19.13-5.14-16.27-88.24-39.87-160.2-28.48C132.29,118.87,68.08,174.14,47.31,236.6c-5.75,17.29-6,38.63,6.92,53.73,8.43,9.81,31,19.72,22.92,35.43-2.63,5.1-7.23,9-11.5,13-8.23,7.71-12.87,17.1-13.19,28.13-.8,27.38,19,50.71,42,65.08C145,463.58,197.23,475,268.33,464.4c96.41-14.34,182.3-80.58,185.11-178.37C454.69,242.67,433,203.82,390.18,186.2Z" style="fill: rgb(255, 255, 255); opacity: 0.5; transform-origin: 248.515px 286.653px;" class="animable" id="elwqeci6zprpq"></path></g><path d="M65.65,338.74c-8.23,7.71-12.87,17.1-13.19,28.13-.8,27.38,19,50.71,42,65.08,43.8,27.41,88.9,39.61,146.41,35.5V147.5l-.19-1.77V105.06a256.76,256.76,0,0,0-40,3C132.29,118.87,68.08,174.14,47.31,236.6c-5.75,17.29-6,38.63,6.92,53.73,8.43,9.81,31,19.72,22.92,35.43C74.52,330.86,69.92,334.75,65.65,338.74Z" style="fill: rgb(38, 50, 56); transform-origin: 142.205px 286.644px;" id="elhh3tuv3on6n" class="animable"></path></g><g id="freepik--Plants--inject-79" class="animable animator-hidden" style="transform-origin: 397.999px 354.363px;"><path d="M403.94,398.9q2.12-2.13,4.16-4.32a17,17,0,0,0-2.59-6.63,5.25,5.25,0,0,0-.12-1,4.36,4.36,0,0,0-5.54-3.36c-3.49,1.16-5.37,7.53-5.34,10.81,0,.2.26,2.3.44,3.62-.22-.76-.43-1.5-.67-2.28-.47-1.55-1-3.08-1.53-4.73-.29-.79-.59-1.58-.88-2.38s-.68-1.62-1-2.43c-.82-1.88-1.74-3.74-2.71-5.6,1.35-.41,6.14-1.95,8-3.56s3.77-4.18,3.59-6.77a4.34,4.34,0,0,0-5-4.16c-3.63.62-6.45,6.63-6.91,9.88,0,.2-.11,2.57-.12,3.88-.59-1.11-1.18-2.23-1.81-3.33-1.83-3.19-3.79-6.36-5.72-9.53-.6-1-1.18-1.94-1.76-2.92.48-.14,6.21-1.84,8.3-3.65,1.85-1.61,3.76-4.18,3.59-6.77a4.36,4.36,0,0,0-5-4.16c-3.63.62-6.44,6.63-6.91,9.88,0,.24-.13,3.66-.12,4.53-1.28-2.15-2.54-4.3-3.7-6.47a77.55,77.55,0,0,1-4.15-9c.23-.06,6.21-1.81,8.35-3.67,1.85-1.61,3.77-4.17,3.59-6.76a4.36,4.36,0,0,0-5-4.17c-3.62.62-6.44,6.63-6.91,9.88,0,.22-.11,2.82-.11,4.06l-.21,0a55.85,55.85,0,0,1-2.47-9.69c-.31-1.82-.51-3.57-.67-5.27,1.15-.21,6.39-1.24,8.49-2.69s4.21-3.74,4.31-6.34a4.35,4.35,0,0,0-4.47-4.68c-3.68.22-7.14,5.88-8,9.06,0,.17-.3,2-.47,3.3-.06-.77-.14-1.56-.18-2.3-.16-2.78-.14-5.33-.1-7.6,0-1.28.08-2.44.14-3.53,1-.8,5.09-4.05,6.26-6.28s2-5.25.91-7.6a4.35,4.35,0,0,0-6.13-2.1c-3.16,1.89-3.62,8.51-2.88,11.71.06.28,1.55,4.49,1.61,4.45l.06-.05c-.08,1.05-.16,2.17-.21,3.4-.09,2.26-.17,4.82-.06,7.61a78.41,78.41,0,0,0,.76,9,57.93,57.93,0,0,0,2.27,9.84.37.37,0,0,1,.05.11c-.63-.87-2.49-3.25-2.65-3.42-2.3-2.35-8.12-5.54-11.41-3.9a4.35,4.35,0,0,0-1.55,6.29c1.39,2.2,4.45,3.14,6.89,3.35,2.76.23,8.41-1.79,8.86-1.95a78.89,78.89,0,0,0,4.08,9.44c.9,1.79,1.87,3.55,2.86,5.32-.57-.74-1.09-1.4-1.17-1.48-2.3-2.35-8.12-5.54-11.41-3.9a4.35,4.35,0,0,0-1.55,6.29c1.38,2.2,4.44,3.14,6.89,3.35s7.33-1.42,8.61-1.86l1.16,2c1.86,3.22,3.74,6.42,5.49,9.62.61,1.12,1.18,2.25,1.75,3.39-.51-.66-.94-1.21-1-1.28-2.29-2.35-8.11-5.54-11.41-3.9a4.35,4.35,0,0,0-1.55,6.29c1.39,2.2,4.45,3.14,6.89,3.35s6.86-1.26,8.39-1.79c.54,1.18,1.1,2.35,1.57,3.52.31.8.67,1.55.93,2.37l.83,2.4c.47,1.55,1,3.14,1.39,4.66.3,1.06.57,2.07.85,3.09-.6-1.13-1.82-3.31-2-3.49-1.91-2.67-7.18-6.7-10.69-5.58a4.36,4.36,0,0,0-2.48,6c1,2.38,3.92,3.77,6.3,4.35,2.63.63,8.3-.44,9-.58.44,1.69.86,3.33,1.23,4.89l.52,2.23,1.87-1.69c-.09-.36-.18-.71-.28-1.07-.44-1.72-.95-3.54-1.49-5.4a48.43,48.43,0,0,0,4.87-2.67A17.69,17.69,0,0,0,403.94,398.9Z" style="fill: rgb(38, 50, 56); transform-origin: 380.552px 354.363px;" id="elixyitgm944d" class="animable"></path><path d="M440.54,304.86c-3.68-.17-7.71,5.1-8.86,8.18-.1.26-1.18,4.6-1.11,4.6h.07c-.64.83-1.32,1.72-2,2.71-1.32,1.85-2.8,3.94-4.25,6.33a76.36,76.36,0,0,0-4.33,7.92,56.18,56.18,0,0,0-3.53,9.46l0,.12c0-1.08-.27-4.09-.32-4.32-.62-3.23-3.71-9.1-7.36-9.54A4.35,4.35,0,0,0,404,334.7c-.05,2.6,2,5.07,3.9,6.59,2.18,1.71,8,3.15,8.47,3.26a76.19,76.19,0,0,0-1.81,10.13c-.23,2-.4,4-.55,6-.07-.93-.14-1.76-.16-1.88-.62-3.23-3.71-9.1-7.37-9.55a4.35,4.35,0,0,0-4.76,4.4c-.06,2.59,2,5.07,3.9,6.59s6.9,2.86,8.21,3.2c0,.77-.1,1.54-.14,2.32-.22,3.71-.42,7.42-.73,11-.11,1.28-.26,2.54-.41,3.8-.06-.83-.12-1.52-.14-1.63-.62-3.23-3.71-9.1-7.37-9.55a4.35,4.35,0,0,0-4.76,4.4c-.06,2.59,2,5.07,3.9,6.59s6.42,2.73,8,3.14c-.19,1.28-.38,2.56-.62,3.8-.19.84-.31,1.66-.54,2.49s-.37,1.43-.55,2.14c.87-1,1.73-2,2.58-2.94.08-.45.15-.9.24-1.35.35-2,.61-4.08.82-6.16.72.21,2.42.69,4.22,1q3.75-4.8,7.15-9.83c-3.26.15-7.29,2.79-9.06,4.77-.13.16-1.5,2.09-2.23,3.17.12-1.25.24-2.5.32-3.77.23-3.67.35-7.39.49-11.1,0-1.14.09-2.27.14-3.41.48.15,6.2,1.89,8.94,1.53,2.43-.32,5.44-1.4,6.72-3.66a4.34,4.34,0,0,0-1.84-6.21c-3.37-1.49-9,2-11.21,4.43-.17.18-2.14,3-2.6,3.71.11-2.5.24-5,.48-7.43a76.69,76.69,0,0,1,1.52-9.83c.23.07,6.19,1.91,9,1.54,2.43-.32,5.44-1.4,6.73-3.66a4.37,4.37,0,0,0-1.85-6.22c-3.36-1.48-9,2-11.21,4.43-.15.17-1.64,2.29-2.33,3.32l-.2-.09a55.76,55.76,0,0,1,3.3-9.44c.73-1.69,1.53-3.26,2.34-4.77,1.07.46,6,2.49,8.57,2.44s5.56-.8,7.09-2.9a4.36,4.36,0,0,0-1.15-6.38c-3.19-1.85-9.2,1-11.64,3.17-.13.12-1.34,1.49-2.21,2.49.37-.67.75-1.38,1.12-2,1.4-2.4,2.82-4.52,4.1-6.39.74-1.05,1.42-2,2.07-2.87,1.29-.1,6.48-.57,8.69-1.78s4.57-3.27,4.95-5.84A4.36,4.36,0,0,0,440.54,304.86Z" style="fill: rgb(38, 50, 56); transform-origin: 422.428px 348.398px;" id="elzgbkfuxp7ge" class="animable"></path><path d="M413.31,316.58c-.73,2.49.57,5.42,2,7.39,1.71,2.32,7.37,5.42,7.38,5.43s.91-4.36.93-4.64c.26-3.28-1.18-9.76-4.58-11.16A4.37,4.37,0,0,0,413.31,316.58Z" style="fill: rgb(38, 50, 56); transform-origin: 418.375px 321.366px;" id="el3o8mrve2vcy" class="animable"></path><path d="M351.66,326.9c.75,2.49,3.46,4.2,5.76,5.05,2.71,1,9.14.45,9.15.45s-1.64-4.14-1.78-4.39c-1.6-2.87-6.37-7.48-10-6.77A4.35,4.35,0,0,0,351.66,326.9Z" style="fill: rgb(38, 50, 56); transform-origin: 358.996px 326.859px;" id="el7t98vur9wts" class="animable"></path></g><g id="freepik--character-2--inject-79" class="animable" style="transform-origin: 311.97px 304.401px;"><path d="M240.64,366.37V467.46c8.92-.63,18.13-1.64,27.69-3.06,42.77-6.36,83.46-22.95,115.76-48l-86-49.39Z" style="fill: rgb(255, 255, 255); stroke: rgb(38, 50, 56); stroke-miterlimit: 10; transform-origin: 312.365px 416.915px;" id="el1x8t1igteg1" class="animable"></path><path d="M240.64,417.21c2.37-3.17,6-9.22,6-9.22s1.92,2.88,9.63,13,11.08,20.22,14,19.26,20.71-22.15,30.34-37.08a48.15,48.15,0,0,0,7.86-30.59c0-2.89-15.08-31.53-17.49-34.42s-17.82-3.85-19.26-3.85c-.61,0-14.78.42-31,.92Z" style="fill: #8A2BE2; stroke: rgb(38, 50, 56); stroke-miterlimit: 10; transform-origin: 274.637px 387.312px;" id="elb94zhh0y1b" class="animable"></path><path d="M282.7,319.38s-23.09,9-42.06,9.71v79a15.66,15.66,0,0,1,2.58-4.88c1.92-1.93,23.11-19.26,30.34-26.49s9.14-11.55,9.14-11.55Z" style="fill: rgb(255, 255, 255); stroke: rgb(38, 50, 56); stroke-miterlimit: 10; transform-origin: 261.67px 363.735px;" id="el7qvsj92gc2f" class="animable"></path><path d="M240.64,329.09v79h0a15.66,15.66,0,0,1,2.58-4.88c.8-.8,4.94-4.28,10-8.57,9.52-23.21,24.65-60.34,29.46-73.7v-1.52S259.61,328.37,240.64,329.09Z" style="fill: rgb(38, 50, 56); stroke: rgb(38, 50, 56); stroke-linecap: round; stroke-linejoin: round; transform-origin: 261.66px 363.755px;" id="elzyl0g5w7lw" class="animable"></path><path d="M240.64,357.82c16.19-1.66,20.6-10.65,32.92-19.18,12.52-8.67,15.89-16.37,19.26-25.52S298.6,289,298.6,289s10.59,1.45,14.92-10.59,10.6-27.45,6.75-35.16-15.9-3.37-15.9-3.37,8.19-16.85,13-32.26-9.63-37.56-14.93-41.42-9.15-6.74-9.15-6.74S277,129.82,240.64,146.36Z" style="fill: rgb(255, 255, 255); stroke: rgb(38, 50, 56); stroke-miterlimit: 10; transform-origin: 281.055px 249.581px;" id="ell9bar79rlxf" class="animable"></path><path d="M269.23,256.54c0,3.85-1.83,7-4.09,7s-4.09-3.13-4.09-7,1.83-7,4.09-7S269.23,252.68,269.23,256.54Z" style="fill: rgb(38, 50, 56); stroke: rgb(38, 50, 56); stroke-linecap: round; stroke-linejoin: round; transform-origin: 265.14px 256.54px;" id="eldxzjdlzi19a" class="animable"></path><path d="M266.64,252.78c0,1-.6,1.84-1.34,1.84s-1.34-.83-1.34-1.84.6-1.85,1.34-1.85S266.64,251.76,266.64,252.78Z" style="fill: rgb(255, 255, 255); transform-origin: 265.3px 252.775px;" id="elm6uvsng7ib" class="animable"></path><path d="M255.1,237.46a49,49,0,0,1,23.46,6.36s4.82.48,2.89-3.85-14.44-7.7-22.15-7.7c-5.14,0-6.85-.22-7.28,1.35A3.14,3.14,0,0,0,255.1,237.46Z" style="fill: rgb(38, 50, 56); stroke: rgb(38, 50, 56); stroke-linecap: round; stroke-linejoin: round; transform-origin: 266.924px 238.048px;" id="elsgwlz3ol75" class="animable"></path><path d="M263,267.85A65.41,65.41,0,0,1,275,264" style="fill: none; stroke: rgb(38, 50, 56); stroke-linecap: round; stroke-linejoin: round; transform-origin: 269px 265.925px;" id="eloa8vpgq13mk" class="animable"></path><path d="M315.93,258.7s1.45-11.07-6.74-8.67-7.7,11.56-7.7,11.56,4.81,2.41,1.44,5.78-4.33,3.37-2.89,6.26" style="fill: none; stroke: rgb(38, 50, 56); stroke-linecap: round; stroke-linejoin: round; transform-origin: 307.711px 261.66px;" id="el10dc8nj1xum" class="animable"></path><path d="M301.49,261.59s8.18-6.26,9.63,3.85" style="fill: none; stroke: rgb(38, 50, 56); stroke-linecap: round; stroke-linejoin: round; transform-origin: 306.305px 262.557px;" id="el3qpg1ju41a3" class="animable"></path><path d="M239.85,297.71s5.78,1.93,10.11,0,6.74-4.82,7.22-8.19" style="fill: none; stroke: rgb(38, 50, 56); stroke-linecap: round; stroke-linejoin: round; transform-origin: 248.515px 294.044px;" id="elp86z9p3a64l" class="animable"></path><path d="M239.85,309.09c1.92.49,16.37.49,22.63-1.92s10.59-8.67,10.59-8.67-1.92,8.19-13,13.48-19.74,3.86-19.74,3.86Z" style="fill: rgb(255, 255, 255); stroke: rgb(38, 50, 56); stroke-linecap: round; stroke-linejoin: round; transform-origin: 256.46px 307.258px;" id="elubptw5l4kd" class="animable"></path><path d="M302.45,166.24c-5.3-3.85-9.15-6.74-9.15-6.74s-16.37-29.85-53-13v85.81c3.78-1.29,11.25-4.27,22.15-10.69,16.37-9.63,17.34-13,17.34-13s-3.86,13-2.41,19.26,9.15,11.56,11.07,12,2.41,15.89,7.23,13,8.66-13,8.66-13,8.19-16.85,13-32.26S307.75,170.1,302.45,166.24Z" style="fill: rgb(38, 50, 56); stroke: rgb(38, 50, 56); stroke-linecap: round; stroke-linejoin: round; transform-origin: 279.304px 197.292px;" id="elveuljiiy5ps" class="animable"></path><path d="M256.81,212.65c5.53-2.37,11.68-5.54,15.79-9.22,9.14-8.18,15.88-22.74,15.88-22.74" style="fill: none; stroke: rgb(115, 115, 115); stroke-linecap: round; stroke-linejoin: round; transform-origin: 272.645px 196.67px;" id="el5xyeddx2ub4" class="animable"></path><path d="M244.18,217.29s1.93-.57,4.85-1.6" style="fill: none; stroke: rgb(115, 115, 115); stroke-linecap: round; stroke-linejoin: round; transform-origin: 246.605px 216.49px;" id="el1fi1ohi7mb3" class="animable"></path><path d="M278.22,181.52a67.06,67.06,0,0,0,5.45-5.64" style="fill: none; stroke: rgb(115, 115, 115); stroke-linecap: round; stroke-linejoin: round; transform-origin: 280.945px 178.7px;" id="el8j5ulzdn0wl" class="animable"></path><path d="M253.33,194.66s9.95-1.21,21.26-10.07" style="fill: none; stroke: rgb(115, 115, 115); stroke-linecap: round; stroke-linejoin: round; transform-origin: 263.96px 189.625px;" id="ellst0b3s96lm" class="animable"></path><path d="M279.82,157.76c-5.83-2.48-13.78-4.64-21.19-2.59" style="fill: none; stroke: rgb(115, 115, 115); stroke-linecap: round; stroke-linejoin: round; transform-origin: 269.225px 156.056px;" id="elg2zup9p42ep" class="animable"></path><path d="M288.48,162.39s-1.36-.95-3.63-2.19" style="fill: none; stroke: rgb(115, 115, 115); stroke-linecap: round; stroke-linejoin: round; transform-origin: 286.665px 161.295px;" id="el7xyb5d7ws0w" class="animable"></path><path d="M292.76,228.79a8.8,8.8,0,0,0,5.13,2.28" style="fill: none; stroke: rgb(115, 115, 115); stroke-linecap: round; stroke-linejoin: round; transform-origin: 295.325px 229.93px;" id="elsn56ycfzk4" class="animable"></path><path d="M294.61,182.82s-10.77,27.64-7,37.94a24,24,0,0,0,2,4.17" style="fill: none; stroke: rgb(115, 115, 115); stroke-linecap: round; stroke-linejoin: round; transform-origin: 290.71px 203.875px;" id="el85ahgxbskda" class="animable"></path></g><g id="freepik--character-1--inject-79" class="animable" style="transform-origin: 157.78px 302.858px;"><path d="M240.64,366.37l-63.88-.76-102,50.78A111.81,111.81,0,0,0,94.42,432c43.75,27.38,88.8,39.58,146.22,35.51Z" style="fill: rgb(176, 176, 176); stroke: rgb(38, 50, 56); stroke-linecap: round; stroke-linejoin: round; transform-origin: 157.7px 416.943px;" id="elksrjyugk8f" class="animable"></path><path d="M192.17,336.72s-10.59,1.44-12,3.85-12.52,27-12.52,27L185,417.13c3.37,9.64,11.56,20.23,11.56,20.23s28.89-30.34,30.33-31.3,2.89-1,5.3,1.93,5.3,11.55,6.74,11.07a6.51,6.51,0,0,0,1.76-1.86v-82Z" style="fill: rgb(176, 176, 176); stroke: rgb(38, 50, 56); stroke-linecap: round; stroke-linejoin: round; transform-origin: 204.17px 386.28px;" id="elaw94y6dlz9e" class="animable"></path><path d="M240.64,329.09a40,40,0,0,1-13.8-1.52c-18.78-6.26-36.59-13-36.59-13v43.83c0,5.29,20.22,26,27.93,32.26s14.92,11.08,16.37,14a57.85,57.85,0,0,0,4.81,7.23s.52-1.79,1.28-3.79Z" style="fill: rgb(176, 176, 176); stroke: rgb(38, 50, 56); stroke-linecap: round; stroke-linejoin: round; transform-origin: 215.445px 363.23px;" id="elp7u83mhq8j9" class="animable"></path><path d="M239.38,411.79c.07-.25.56-1.9,1.26-3.74h0v-79c-1.76.06-3.47.05-5.14,0l-.49,0-1.14-.09-.84-.09c-.33,0-.64-.07-1-.12s-.66-.09-1-.15l-.82-.14c-.38-.07-.75-.16-1.12-.24l-.63-.15q-.86-.21-1.68-.48l-1.67-.56-.55-.19-1.12-.38-.63-.21-1-.35-.65-.23-1-.34-.65-.22-1-.34-.63-.22-1-.35-.61-.21-1.09-.38-.46-.16-1.29-.45-.28-.1-1.56-.55-.06,0-1.46-.51-.3-.11-1.17-.42-.41-.14-1-.36-.5-.18-.91-.32-.48-.18-.85-.3-.51-.19-.88-.31-.37-.14-2.38-.86-.09,0-1.17-.43h0l-1.06-.39-.18-.07-.78-.28-.42-.16-.53-.19-.38-.14-.52-.2-.42-.15-.36-.14L194,316l-.36-.13-.38-.14-.19-.07-2.22-.83c3.05,12.31,12.11,46.69,18.48,67.69q1.29,1.29,2.52,2.46l.12.11,1,1,.26.24.84.79.32.29.73.67.34.3.66.59.33.29.63.54.27.24.83.68c6.26,5.09,12.2,9.22,15,12.14.22.22.41.44.59.65a6.27,6.27,0,0,1,.8,1.17c.27.55.61,1.14,1,1.74.5.81,1.05,1.64,1.58,2.4,1.19,1.72,2.25,3.09,2.25,3.09Z" style="fill: rgb(38, 50, 56); stroke: rgb(38, 50, 56); stroke-linecap: round; stroke-linejoin: round; transform-origin: 215.745px 363.37px;" id="eldpqetuqhyvb" class="animable"></path><path d="M240.75,146.31l-.42.19s-10.11-7.22-17.82-8.67-12.52,1.45-10.11,3.85a42.2,42.2,0,0,1,4.81,6.26s-19.74-1.44-30.82,4.82-12.52,7.71-7.7,6.74,11.07-1.44,11.07-1.44-19.26,11.07-23.11,26,7.7,34.67,9.15,40.45a93.9,93.9,0,0,1,1.93,17.34,10.71,10.71,0,0,0,1,4.33s-14.93-9.15-19.75-3.37S155.28,274,162,283.1,178.21,289,178.21,289s1.44,17.34,7.22,26.49,27,30.33,33.23,35.15,16.29,7.64,21.19,7.22c.27,0,.52-.06.79-.09V146.36l.11-.05Z" style="fill: rgb(176, 176, 176); stroke: rgb(38, 50, 56); stroke-linecap: round; stroke-linejoin: round; transform-origin: 198.387px 247.671px;" id="elqns8txdrve8" class="animable"></path><path d="M240.33,191.28H199.4s-5.78,6.27-6.26,22.16,0,28.41,0,28.41-3.86,18.3,0,28.89,8.66,15.89,8.66,25-4.33,16.86-2.4,25.53c1.42,6.41,4.95,14.13,6.69,17.72a168.34,168.34,0,0,0,12.57,11.65c6.26,4.82,16.29,7.64,21.19,7.22l.48,0Z" style="fill: rgb(38, 50, 56); stroke: rgb(38, 50, 56); stroke-linecap: round; stroke-linejoin: round; transform-origin: 215.877px 274.591px;" id="elzb63qgptwd" class="animable"></path><path d="M240.64,145.73c-3.66-2.19-12.35-6.81-18.13-7.9-7.7-1.44-12.52,1.45-10.11,3.85a42.2,42.2,0,0,1,4.81,6.26s-19.74-1.44-30.82,4.82-12.52,7.71-7.7,6.74,11.07-1.44,11.07-1.44-19.26,11.07-23.11,26,7.7,34.67,9.15,40.45a93.9,93.9,0,0,1,1.93,17.34,10.71,10.71,0,0,0,1,4.33l4.81,8.19s8.67-6.26,11.56-7.71a12.7,12.7,0,0,0,6.26-10.59,78.25,78.25,0,0,0-1.44-12l2.4-1.93,3.38-4.33-2.41,9.63,8.67-4.33s-1.45,6.74-1.93,10.11-3.85,8.19-3.85,8.19,8.67-2.89,13-6.26S229.25,224,229.25,224s-.48,4.82-1,6.74S215.37,247,215.37,247a27.88,27.88,0,0,0,14.85-6.06c4.48-3.59,8.22-6.35,10.42-7.92Z" style="fill: rgb(176, 176, 176); stroke: rgb(38, 50, 56); stroke-linecap: round; stroke-linejoin: round; transform-origin: 203.254px 195.907px;" id="elhhg9xmgf2uu" class="animable"></path><path d="M184.47,270.74s-1.93-11.07-8.19-16.37-11.56-4.82-14.45,1-1.33,13.94,1.08,21.16,5.18,7.25,9,7.25h6.26s5.29,4.34,5.78,13-.49,15.89,4.33,13.48,7.22-19.26,3.37-27S185.43,272.67,184.47,270.74Z" style="fill: rgb(38, 50, 56); stroke: rgb(38, 50, 56); stroke-linecap: round; stroke-linejoin: round; transform-origin: 176.913px 280.705px;" id="el49gw904ov0m" class="animable"></path><path d="M185.91,400.28c1,8.67,1.93,22.15,1.93,22.15l-14.93-38.52S99.71,420,94.42,424.36c-1.1.9-2,3-2.88,5.73Q93,431,94.42,432c43.18,27,87.62,39.26,146.21,35.66V411.84s-7-13-16.19-19.26-15.14-10.11-15.14-10.11S198.73,372,192.89,364.12l-13,1.53C180.94,377.67,185.23,394.15,185.91,400.28Z" style="fill: rgb(38, 50, 56); stroke: rgb(38, 50, 56); stroke-linecap: round; stroke-linejoin: round; transform-origin: 166.085px 416.197px;" id="elb2zynvfy9ti" class="animable"></path><path d="M190.27,344.1s-5.58,2.3-4.6,5.91,4.58,8.38,4.58,8.38Z" style="fill: rgb(38, 50, 56); stroke: rgb(38, 50, 56); stroke-linecap: round; stroke-linejoin: round; transform-origin: 187.912px 351.245px;" id="el8eopxgnyk5m" class="animable"></path><path d="M240.75,163.18a23.15,23.15,0,0,0-8.53-7.46c-6.67-3.5-8.07,1.06-5.61,4.56s4.21,6,4.21,6-17.54-5.61-27-2.81-1.76,4.21,1.05,5.61a30.77,30.77,0,0,0,5.61,2.11s-20,3.86-28.76,14.38-4.56,23.5-2.1,28.41,5.61,16.49,4.91,21.4-2.81,7.71-2.11,9.47,0,6,2.46,4.56,9.12-4.56,10.87-8.42-1.05-9.47-1.05-13.68v-5.61s1.4,0,6-3.86,6.67-8.77,8.07-7-4.21,11.93-.7,11.23,8.06-4.21,8.06-4.21a41.83,41.83,0,0,1-.7,10.17,58.76,58.76,0,0,1-2.8,9.12s10.87-7.72,13.68-12.63a28.07,28.07,0,0,1,5.26-7s1.75,6,1.75,9.47a12.81,12.81,0,0,1-3.16,8.77,32.15,32.15,0,0,1-3.85,3.85s5.61-1.05,10.17-8.06a37.2,37.2,0,0,0,4.32-8.1Z" style="fill: rgb(38, 50, 56); stroke: rgb(38, 50, 56); stroke-linecap: round; stroke-linejoin: round; transform-origin: 208.614px 202.083px;" id="elpkyq5fjbyx" class="animable"></path></g><g id="freepik--Rain--inject-79" class="animable animator-hidden" style="transform-origin: 140.645px 284.81px;"><line x1="87.35" y1="152.48" x2="91.7" y2="198.88" style="fill: none; stroke: rgb(240, 240, 240); stroke-linecap: round; stroke-linejoin: round; transform-origin: 89.525px 175.68px;" id="el5hz6pyy0fo8" class="animable"></line><line x1="83.72" y1="216.29" x2="88.8" y2="261.24" style="fill: none; stroke: rgb(240, 240, 240); stroke-linecap: round; stroke-linejoin: round; transform-origin: 86.26px 238.765px;" id="elisl2lohw4cm" class="animable"></line><line x1="106.2" y1="164.08" x2="112.73" y2="215.56" style="fill: none; stroke: rgb(240, 240, 240); stroke-linecap: round; stroke-linejoin: round; transform-origin: 109.465px 189.82px;" id="eln3c1l97e6va" class="animable"></line><line x1="126.5" y1="140.15" x2="132.3" y2="253.99" style="fill: none; stroke: rgb(240, 240, 240); stroke-linecap: round; stroke-linejoin: round; transform-origin: 129.4px 197.07px;" id="eldxdlbvi6467" class="animable"></line><line x1="109.1" y1="248.19" x2="114.9" y2="315.63" style="fill: none; stroke: rgb(240, 240, 240); stroke-linecap: round; stroke-linejoin: round; transform-origin: 112px 281.91px;" id="el9dh6syzdmm9" class="animable"></line><line x1="155.51" y1="130" x2="155.51" y2="177.85" style="fill: none; stroke: rgb(240, 240, 240); stroke-linecap: round; stroke-linejoin: round; transform-origin: 155.51px 153.925px;" id="el07zc3b995rs" class="animable"></line><line x1="183.79" y1="108.97" x2="183.79" y2="136.52" style="fill: none; stroke: rgb(240, 240, 240); stroke-linecap: round; stroke-linejoin: round; transform-origin: 183.79px 122.745px;" id="elomiff9nfizj" class="animable"></line><line x1="59.07" y1="251.82" x2="62.69" y2="282.27" style="fill: none; stroke: rgb(240, 240, 240); stroke-linecap: round; stroke-linejoin: round; transform-origin: 60.88px 267.045px;" id="elyzpz8kwhb3d" class="animable"></line><line x1="96.05" y1="306.2" x2="99.67" y2="370.73" style="fill: none; stroke: rgb(240, 240, 240); stroke-linecap: round; stroke-linejoin: round; transform-origin: 97.86px 338.465px;" id="elv52gt0o77vc" class="animable"></line><line x1="70.67" y1="354.78" x2="71.39" y2="391.04" style="fill: none; stroke: rgb(240, 240, 240); stroke-linecap: round; stroke-linejoin: round; transform-origin: 71.03px 372.91px;" id="elk6ra1zsedmi" class="animable"></line><line x1="129.4" y1="352.61" x2="133.03" y2="414.24" style="fill: none; stroke: rgb(240, 240, 240); stroke-linecap: round; stroke-linejoin: round; transform-origin: 131.215px 383.425px;" id="el9aew8gzl19j" class="animable"></line><line x1="156.96" y1="412.07" x2="159.86" y2="447.6" style="fill: none; stroke: rgb(240, 240, 240); stroke-linecap: round; stroke-linejoin: round; transform-origin: 158.41px 429.835px;" id="elih5ojtjo0wn" class="animable"></line><line x1="147.53" y1="275.02" x2="149.71" y2="331.58" style="fill: none; stroke: rgb(240, 240, 240); stroke-linecap: round; stroke-linejoin: round; transform-origin: 148.62px 303.3px;" id="elbzn2s3izqf" class="animable"></line><line x1="148.98" y1="205.41" x2="151.16" y2="231.51" style="fill: none; stroke: rgb(240, 240, 240); stroke-linecap: round; stroke-linejoin: round; transform-origin: 150.07px 218.46px;" id="ely59ma7kt4l8" class="animable"></line><line x1="212.07" y1="120.57" x2="214.24" y2="177.85" style="fill: none; stroke: rgb(240, 240, 240); stroke-linecap: round; stroke-linejoin: round; transform-origin: 213.155px 149.21px;" id="el9zuls118h4d" class="animable"></line><line x1="205.54" y1="182.93" x2="209.17" y2="259.79" style="fill: none; stroke: rgb(240, 240, 240); stroke-linecap: round; stroke-linejoin: round; transform-origin: 207.355px 221.36px;" id="elfa4vpveizte" class="animable"></line><line x1="220.04" y1="255.44" x2="222.22" y2="288.8" style="fill: none; stroke: rgb(240, 240, 240); stroke-linecap: round; stroke-linejoin: round; transform-origin: 221.13px 272.12px;" id="el92r8igzmd6" class="animable"></line><line x1="212.07" y1="322.15" x2="215.69" y2="360.58" style="fill: none; stroke: rgb(240, 240, 240); stroke-linecap: round; stroke-linejoin: round; transform-origin: 213.88px 341.365px;" id="elkiyqpq0qed" class="animable"></line><line x1="200.46" y1="381.61" x2="204.09" y2="420.04" style="fill: none; stroke: rgb(240, 240, 240); stroke-linecap: round; stroke-linejoin: round; transform-origin: 202.275px 400.825px;" id="elltt2htopyir" class="animable"></line><line x1="193.21" y1="433.82" x2="196.11" y2="460.65" style="fill: none; stroke: rgb(240, 240, 240); stroke-linecap: round; stroke-linejoin: round; transform-origin: 194.66px 447.235px;" id="eldyxu8sgdql" class="animable"></line><line x1="86.62" y1="408.44" x2="82.27" y2="406.26" style="fill: none; stroke: rgb(240, 240, 240); stroke-linecap: round; stroke-linejoin: round; transform-origin: 84.445px 407.35px;" id="el5li4x2gqdlg" class="animable"></line><line x1="93.87" y1="406.99" x2="98.22" y2="400.46" style="fill: none; stroke: rgb(240, 240, 240); stroke-linecap: round; stroke-linejoin: round; transform-origin: 96.045px 403.725px;" id="el40cuogpao7x" class="animable"></line><line x1="89.52" y1="404.09" x2="84.45" y2="399.01" style="fill: none; stroke: rgb(240, 240, 240); stroke-linecap: round; stroke-linejoin: round; transform-origin: 86.985px 401.55px;" id="elxq5cbkdswwi" class="animable"></line><line x1="91.7" y1="400.46" x2="93.87" y2="396.84" style="fill: none; stroke: rgb(240, 240, 240); stroke-linecap: round; stroke-linejoin: round; transform-origin: 92.785px 398.65px;" id="el5nx81u3sdzv" class="animable"></line><line x1="141.38" y1="382.61" x2="137.03" y2="380.44" style="fill: none; stroke: rgb(240, 240, 240); stroke-linecap: round; stroke-linejoin: round; transform-origin: 139.205px 381.525px;" id="elll2hc5widl" class="animable"></line><line x1="148.63" y1="381.16" x2="152.98" y2="374.64" style="fill: none; stroke: rgb(240, 240, 240); stroke-linecap: round; stroke-linejoin: round; transform-origin: 150.805px 377.9px;" id="elj76jrjw2rsd" class="animable"></line><line x1="144.28" y1="378.26" x2="139.21" y2="373.19" style="fill: none; stroke: rgb(240, 240, 240); stroke-linecap: round; stroke-linejoin: round; transform-origin: 141.745px 375.725px;" id="elocsjs3vouc" class="animable"></line><line x1="146.46" y1="374.64" x2="148.63" y2="371.01" style="fill: none; stroke: rgb(240, 240, 240); stroke-linecap: round; stroke-linejoin: round; transform-origin: 147.545px 372.825px;" id="elk48vs9wd3k" class="animable"></line><line x1="194.57" y1="147.48" x2="190.22" y2="145.3" style="fill: none; stroke: rgb(240, 240, 240); stroke-linecap: round; stroke-linejoin: round; transform-origin: 192.395px 146.39px;" id="elh602mbib32e" class="animable"></line><line x1="201.82" y1="146.03" x2="206.17" y2="139.5" style="fill: none; stroke: rgb(240, 240, 240); stroke-linecap: round; stroke-linejoin: round; transform-origin: 203.995px 142.765px;" id="elh5u50shew5p" class="animable"></line><line x1="197.47" y1="143.13" x2="192.4" y2="138.05" style="fill: none; stroke: rgb(240, 240, 240); stroke-linecap: round; stroke-linejoin: round; transform-origin: 194.935px 140.59px;" id="el1z8dj7s5dlg" class="animable"></line><line x1="199.65" y1="139.5" x2="201.82" y2="135.88" style="fill: none; stroke: rgb(240, 240, 240); stroke-linecap: round; stroke-linejoin: round; transform-origin: 200.735px 137.69px;" id="els69sc4ttl8" class="animable"></line><line x1="177.49" y1="338.85" x2="173.14" y2="336.68" style="fill: none; stroke: rgb(240, 240, 240); stroke-linecap: round; stroke-linejoin: round; transform-origin: 175.315px 337.765px;" id="elx990hk9064h" class="animable"></line><line x1="184.74" y1="337.4" x2="189.09" y2="330.88" style="fill: none; stroke: rgb(240, 240, 240); stroke-linecap: round; stroke-linejoin: round; transform-origin: 186.915px 334.14px;" id="el1ksjnhst4ov" class="animable"></line><line x1="180.39" y1="334.5" x2="175.31" y2="329.43" style="fill: none; stroke: rgb(240, 240, 240); stroke-linecap: round; stroke-linejoin: round; transform-origin: 177.85px 331.965px;" id="ele52rmv2bdp7" class="animable"></line><line x1="182.57" y1="330.88" x2="184.74" y2="327.25" style="fill: none; stroke: rgb(240, 240, 240); stroke-linecap: round; stroke-linejoin: round; transform-origin: 183.655px 329.065px;" id="elf0c10x8lta" class="animable"></line></g><g id="freepik--Sun--inject-79" class="animable animator-hidden" style="transform-origin: 354.695px 73.6px;"><g id="eln41dy3z2cqd"><circle cx="354.69" cy="73.58" r="28.22" style="fill: #8A2BE2; transform-origin: 354.69px 73.58px; transform: rotate(-21.56deg);" class="animable" id="el4rdb8tkbc06"></circle></g><rect x="354.19" y="105.81" width="1" height="19.64" style="fill: #8A2BE2; transform-origin: 354.69px 115.63px;" id="elv9mzl9ud5y" class="animable"></rect><rect x="354.19" y="21.75" width="1" height="19.64" style="fill: #8A2BE2; transform-origin: 354.69px 31.57px;" id="elgrw0j657oga" class="animable"></rect><rect x="386.91" y="73.1" width="19.64" height="1" style="fill: #8A2BE2; transform-origin: 396.73px 73.6px;" id="elnmh2z2ueeqb" class="animable"></rect><rect x="302.84" y="73.1" width="19.64" height="1" style="fill: #8A2BE2; transform-origin: 312.66px 73.6px;" id="elbpc9l6oirf9" class="animable"></rect><g id="el88bji1tugfl"><rect x="374.6" y="43.38" width="19.64" height="1" style="fill: #8A2BE2; transform-origin: 384.42px 43.88px; transform: rotate(-45deg);" class="animable" id="eluekw6xoi5xi"></rect></g><g id="elxz6xhsd9dco"><rect x="315.15" y="102.82" width="19.64" height="1" style="fill: #8A2BE2; transform-origin: 324.97px 103.32px; transform: rotate(-45deg);" class="animable" id="elf3way08r3xq"></rect></g><g id="eli7vydyoluyp"><rect x="324.47" y="34.06" width="1" height="19.64" style="fill: #8A2BE2; transform-origin: 324.97px 43.88px; transform: rotate(-45deg);" class="animable" id="elitsksk18db8"></rect></g><g id="elogkuc9g62f"><rect x="383.92" y="93.5" width="1" height="19.64" style="fill: #8A2BE2; transform-origin: 384.42px 103.32px; transform: rotate(-45deg);" class="animable" id="elyzyp54m27bs"></rect></g><g id="elcxjoe9bfyur"><g style="opacity: 0.5; transform-origin: 354.695px 73.6px;" class="animable" id="elxu867mhbu0e"><g id="el94ed68b1ei7"><circle cx="354.69" cy="73.58" r="28.22" style="fill: rgb(255, 255, 255); transform-origin: 354.69px 73.58px; transform: rotate(-21.56deg);" class="animable" id="elmrg3vsyqug"></circle></g><rect x="354.19" y="105.81" width="1" height="19.64" style="fill: rgb(255, 255, 255); transform-origin: 354.69px 115.63px;" id="elqh7c97qvspl" class="animable"></rect><rect x="354.19" y="21.75" width="1" height="19.64" style="fill: rgb(255, 255, 255); transform-origin: 354.69px 31.57px;" id="elaw92pdpbc5j" class="animable"></rect><rect x="386.91" y="73.1" width="19.64" height="1" style="fill: rgb(255, 255, 255); transform-origin: 396.73px 73.6px;" id="elmieeg4sn11" class="animable"></rect><rect x="302.84" y="73.1" width="19.64" height="1" style="fill: rgb(255, 255, 255); transform-origin: 312.66px 73.6px;" id="elqfg6mmjvc4m" class="animable"></rect><g id="elm6gafbmy6f"><rect x="374.6" y="43.38" width="19.64" height="1" style="fill: rgb(255, 255, 255); transform-origin: 384.42px 43.88px; transform: rotate(-45deg);" class="animable" id="elvjlih1v6t4c"></rect></g><g id="elmj24uq3y8a"><rect x="315.15" y="102.82" width="19.64" height="1" style="fill: rgb(255, 255, 255); transform-origin: 324.97px 103.32px; transform: rotate(-45deg);" class="animable" id="elntczlz9tm19"></rect></g><g id="el74nbczygxmh"><rect x="324.47" y="34.06" width="1" height="19.64" style="fill: rgb(255, 255, 255); transform-origin: 324.97px 43.88px; transform: rotate(-45deg);" class="animable" id="eljmn1v9ap5h"></rect></g><g id="elj5u96hl4aw"><rect x="383.92" y="93.5" width="1" height="19.64" style="fill: rgb(255, 255, 255); transform-origin: 384.42px 103.32px; transform: rotate(-45deg);" class="animable" id="el754ya00iwbk"></rect></g></g></g></g><g id="freepik--Cloud--inject-79" class="animable animator-hidden" style="transform-origin: 138.265px 94.7938px;"><polyline points="129.81 91.21 123 107.57 136.63 109.62 126.4 130.75 136.63 126.66 122.31 155.97 151.63 117.11 140.72 117.11 152.99 100.75 137.31 99.39 140.72 89.16" style="fill: rgb(163, 163, 163); transform-origin: 137.65px 122.565px;" id="elx1b4ic5hdb" class="animable"></polyline><path d="M188.45,53.18a12.75,12.75,0,0,0-18.22-9,31.34,31.34,0,0,0-49.59,3.47A24.25,24.25,0,0,0,82.06,60.67a17.42,17.42,0,1,0,14.53,31,20.3,20.3,0,0,0,34.45.38,31.32,31.32,0,0,0,32.4-.56,24.43,24.43,0,1,0,25-38.32Z" style="fill: rgb(38, 50, 56); transform-origin: 138.265px 67.5305px;" id="elltdx0ltgzhg" class="animable"></path></g><defs>     <filter id="active" height="200%">         <feMorphology in="SourceAlpha" result="DILATED" operator="dilate" radius="2"></feMorphology>                <feFlood flood-color="#32DFEC" flood-opacity="1" result="PINK"></feFlood>        <feComposite in="PINK" in2="DILATED" operator="in" result="OUTLINE"></feComposite>        <feMerge>            <feMergeNode in="OUTLINE"></feMergeNode>            <feMergeNode in="SourceGraphic"></feMergeNode>        </feMerge>    </filter>    <filter id="hover" height="200%">        <feMorphology in="SourceAlpha" result="DILATED" operator="dilate" radius="2"></feMorphology>                <feFlood flood-color="#ff0000" flood-opacity="0.5" result="PINK"></feFlood>        <feComposite in="PINK" in2="DILATED" operator="in" result="OUTLINE"></feComposite>        <feMerge>            <feMergeNode in="OUTLINE"></feMergeNode>            <feMergeNode in="SourceGraphic"></feMergeNode>        </feMerge>            <feColorMatrix type="matrix" values="0   0   0   0   0                0   1   0   0   0                0   0   0   0   0                0   0   0   1   0 "></feColorMatrix>    </filter></defs></svg>